<mxfile host="65bd71144e">
    <diagram id="P1TqRCjl7e8hRfgaKkpk" name="第 1 页">
        <mxGraphModel dx="833" dy="790" grid="1" gridSize="10" guides="1" tooltips="1" connect="1" arrows="1" fold="1" page="1" pageScale="1" pageWidth="827" pageHeight="1169" math="0" shadow="0">
            <root>
                <mxCell id="0"/>
                <mxCell id="1" parent="0"/>
                <mxCell id="15" value="" style="rounded=0;whiteSpace=wrap;html=1;" parent="1" vertex="1">
                    <mxGeometry x="280" y="120" width="40" height="120" as="geometry"/>
                </mxCell>
                <mxCell id="16" value="" style="rounded=0;whiteSpace=wrap;html=1;" parent="1" vertex="1">
                    <mxGeometry x="280" y="240" width="40" height="120" as="geometry"/>
                </mxCell>
                <mxCell id="17" value="" style="rounded=0;whiteSpace=wrap;html=1;" parent="1" vertex="1">
                    <mxGeometry x="280" y="360" width="40" height="120" as="geometry"/>
                </mxCell>
                <mxCell id="18" value="" style="rounded=0;whiteSpace=wrap;html=1;" parent="1" vertex="1">
                    <mxGeometry x="280" y="480" width="40" height="120" as="geometry"/>
                </mxCell>
                <mxCell id="19" value="" style="rounded=0;whiteSpace=wrap;html=1;" parent="1" vertex="1">
                    <mxGeometry x="280" y="600" width="40" height="120" as="geometry"/>
                </mxCell>
                <mxCell id="20" value="" style="rounded=0;whiteSpace=wrap;html=1;" parent="1" vertex="1">
                    <mxGeometry x="480" y="120" width="40" height="120" as="geometry"/>
                </mxCell>
                <mxCell id="21" value="" style="rounded=0;whiteSpace=wrap;html=1;" parent="1" vertex="1">
                    <mxGeometry x="480" y="240" width="40" height="120" as="geometry"/>
                </mxCell>
                <mxCell id="22" value="" style="rounded=0;whiteSpace=wrap;html=1;" parent="1" vertex="1">
                    <mxGeometry x="480" y="360" width="40" height="120" as="geometry"/>
                </mxCell>
                <mxCell id="23" value="" style="rounded=0;whiteSpace=wrap;html=1;" parent="1" vertex="1">
                    <mxGeometry x="480" y="480" width="40" height="120" as="geometry"/>
                </mxCell>
                <mxCell id="24" value="" style="rounded=0;whiteSpace=wrap;html=1;" parent="1" vertex="1">
                    <mxGeometry x="480" y="600" width="40" height="120" as="geometry"/>
                </mxCell>
                <mxCell id="25" value="&lt;font style=&quot;font-size: 24px&quot;&gt;客户端&lt;/font&gt;" style="text;html=1;strokeColor=none;fillColor=none;align=center;verticalAlign=middle;whiteSpace=wrap;rounded=0;" parent="1" vertex="1">
                    <mxGeometry x="260" y="70" width="80" height="20" as="geometry"/>
                </mxCell>
                <mxCell id="26" value="&lt;font style=&quot;font-size: 24px&quot;&gt;客户端&lt;/font&gt;" style="text;html=1;strokeColor=none;fillColor=none;align=center;verticalAlign=middle;whiteSpace=wrap;rounded=0;" parent="1" vertex="1">
                    <mxGeometry x="460" y="70" width="80" height="20" as="geometry"/>
                </mxCell>
                <mxCell id="28" value="&lt;font style=&quot;font-size: 18px&quot;&gt;SYN_SEND&lt;/font&gt;" style="text;html=1;strokeColor=none;fillColor=none;align=center;verticalAlign=middle;whiteSpace=wrap;rounded=0;" parent="1" vertex="1">
                    <mxGeometry x="180" y="170" width="80" height="20" as="geometry"/>
                </mxCell>
                <mxCell id="51" value="" style="endArrow=classic;html=1;exitX=1;exitY=0.5;exitDx=0;exitDy=0;entryX=0;entryY=0.5;entryDx=0;entryDy=0;" parent="1" source="15" target="21" edge="1">
                    <mxGeometry relative="1" as="geometry">
                        <mxPoint x="350" y="190" as="sourcePoint"/>
                        <mxPoint x="510" y="310" as="targetPoint"/>
                    </mxGeometry>
                </mxCell>
                <mxCell id="52" value="&lt;font style=&quot;font-size: 18px&quot;&gt;syn&lt;/font&gt;" style="edgeLabel;resizable=0;html=1;align=center;verticalAlign=middle;" parent="51" connectable="0" vertex="1">
                    <mxGeometry relative="1" as="geometry"/>
                </mxCell>
                <mxCell id="53" value="&lt;font style=&quot;font-size: 18px&quot;&gt;SYN_RCV&lt;/font&gt;" style="text;html=1;strokeColor=none;fillColor=none;align=center;verticalAlign=middle;whiteSpace=wrap;rounded=0;" parent="1" vertex="1">
                    <mxGeometry x="540" y="290" width="80" height="20" as="geometry"/>
                </mxCell>
                <mxCell id="56" value="" style="endArrow=classic;html=1;exitX=1;exitY=0.5;exitDx=0;exitDy=0;entryX=1;entryY=0.5;entryDx=0;entryDy=0;" parent="1" target="17" edge="1">
                    <mxGeometry relative="1" as="geometry">
                        <mxPoint x="480" y="300" as="sourcePoint"/>
                        <mxPoint x="640" y="420" as="targetPoint"/>
                    </mxGeometry>
                </mxCell>
                <mxCell id="57" value="&lt;font style=&quot;font-size: 18px&quot;&gt;ack+syn&lt;/font&gt;" style="edgeLabel;resizable=0;html=1;align=center;verticalAlign=middle;" parent="56" connectable="0" vertex="1">
                    <mxGeometry relative="1" as="geometry"/>
                </mxCell>
                <mxCell id="58" value="" style="endArrow=classic;html=1;exitX=1;exitY=0.5;exitDx=0;exitDy=0;entryX=0;entryY=0.5;entryDx=0;entryDy=0;" parent="1" edge="1">
                    <mxGeometry relative="1" as="geometry">
                        <mxPoint x="320" y="420" as="sourcePoint"/>
                        <mxPoint x="480" y="540" as="targetPoint"/>
                    </mxGeometry>
                </mxCell>
                <mxCell id="59" value="&lt;font style=&quot;font-size: 18px&quot;&gt;ack&lt;/font&gt;" style="edgeLabel;resizable=0;html=1;align=center;verticalAlign=middle;" parent="58" connectable="0" vertex="1">
                    <mxGeometry relative="1" as="geometry"/>
                </mxCell>
                <mxCell id="60" value="&lt;font style=&quot;font-size: 18px&quot;&gt;Established&lt;/font&gt;" style="text;html=1;strokeColor=none;fillColor=none;align=center;verticalAlign=middle;whiteSpace=wrap;rounded=0;" parent="1" vertex="1">
                    <mxGeometry x="180" y="410" width="80" height="20" as="geometry"/>
                </mxCell>
                <mxCell id="61" value="&lt;font style=&quot;font-size: 18px&quot;&gt;Established&lt;/font&gt;" style="text;html=1;strokeColor=none;fillColor=none;align=center;verticalAlign=middle;whiteSpace=wrap;rounded=0;" parent="1" vertex="1">
                    <mxGeometry x="540" y="530" width="80" height="20" as="geometry"/>
                </mxCell>
                <mxCell id="62" value="" style="endArrow=classic;startArrow=classic;html=1;entryX=0;entryY=0.5;entryDx=0;entryDy=0;exitX=1;exitY=0.5;exitDx=0;exitDy=0;" parent="1" source="19" target="24" edge="1">
                    <mxGeometry width="50" height="50" relative="1" as="geometry">
                        <mxPoint x="350" y="670" as="sourcePoint"/>
                        <mxPoint x="400" y="620" as="targetPoint"/>
                    </mxGeometry>
                </mxCell>
                <mxCell id="63" value="&lt;font style=&quot;font-size: 14px&quot;&gt;数据传输&lt;/font&gt;" style="text;html=1;strokeColor=none;fillColor=none;align=center;verticalAlign=middle;whiteSpace=wrap;rounded=0;" parent="1" vertex="1">
                    <mxGeometry x="370" y="630" width="60" height="20" as="geometry"/>
                </mxCell>
            </root>
        </mxGraphModel>
    </diagram>
    <diagram id="MZM1qPbcumY_RfSu5R_3" name="第 2 页">
        <mxGraphModel dx="833" dy="790" grid="1" gridSize="10" guides="1" tooltips="1" connect="1" arrows="1" fold="1" page="1" pageScale="1" pageWidth="827" pageHeight="1169" math="0" shadow="0">
            <root>
                <mxCell id="PbpC3O1FXFTj0-YnTnsV-0"/>
                <mxCell id="PbpC3O1FXFTj0-YnTnsV-1" parent="PbpC3O1FXFTj0-YnTnsV-0"/>
                <mxCell id="ov4HTieGYT_I95JNGuCq-0" value="" style="rounded=0;whiteSpace=wrap;html=1;" parent="PbpC3O1FXFTj0-YnTnsV-1" vertex="1">
                    <mxGeometry x="160" y="120" width="40" height="240" as="geometry"/>
                </mxCell>
                <mxCell id="ov4HTieGYT_I95JNGuCq-2" value="" style="rounded=0;whiteSpace=wrap;html=1;" parent="PbpC3O1FXFTj0-YnTnsV-1" vertex="1">
                    <mxGeometry x="160" y="360" width="40" height="120" as="geometry"/>
                </mxCell>
                <mxCell id="ov4HTieGYT_I95JNGuCq-3" value="" style="rounded=0;whiteSpace=wrap;html=1;" parent="PbpC3O1FXFTj0-YnTnsV-1" vertex="1">
                    <mxGeometry x="160" y="480" width="40" height="120" as="geometry"/>
                </mxCell>
                <mxCell id="ov4HTieGYT_I95JNGuCq-4" value="" style="rounded=0;whiteSpace=wrap;html=1;" parent="PbpC3O1FXFTj0-YnTnsV-1" vertex="1">
                    <mxGeometry x="160" y="600" width="40" height="120" as="geometry"/>
                </mxCell>
                <mxCell id="ov4HTieGYT_I95JNGuCq-5" value="" style="rounded=0;whiteSpace=wrap;html=1;" parent="PbpC3O1FXFTj0-YnTnsV-1" vertex="1">
                    <mxGeometry x="520" y="120" width="40" height="120" as="geometry"/>
                </mxCell>
                <mxCell id="ov4HTieGYT_I95JNGuCq-6" value="" style="rounded=0;whiteSpace=wrap;html=1;" parent="PbpC3O1FXFTj0-YnTnsV-1" vertex="1">
                    <mxGeometry x="520" y="240" width="40" height="120" as="geometry"/>
                </mxCell>
                <mxCell id="ov4HTieGYT_I95JNGuCq-7" value="" style="rounded=0;whiteSpace=wrap;html=1;" parent="PbpC3O1FXFTj0-YnTnsV-1" vertex="1">
                    <mxGeometry x="520" y="360" width="40" height="240" as="geometry"/>
                </mxCell>
                <mxCell id="ov4HTieGYT_I95JNGuCq-9" value="" style="rounded=0;whiteSpace=wrap;html=1;" parent="PbpC3O1FXFTj0-YnTnsV-1" vertex="1">
                    <mxGeometry x="520" y="600" width="40" height="120" as="geometry"/>
                </mxCell>
                <mxCell id="ov4HTieGYT_I95JNGuCq-10" value="&lt;font style=&quot;font-size: 24px&quot;&gt;客户端&lt;/font&gt;" style="text;html=1;strokeColor=none;fillColor=none;align=center;verticalAlign=middle;whiteSpace=wrap;rounded=0;" parent="PbpC3O1FXFTj0-YnTnsV-1" vertex="1">
                    <mxGeometry x="140" y="70" width="80" height="20" as="geometry"/>
                </mxCell>
                <mxCell id="ov4HTieGYT_I95JNGuCq-11" value="&lt;font style=&quot;font-size: 24px&quot;&gt;客户端&lt;/font&gt;" style="text;html=1;strokeColor=none;fillColor=none;align=center;verticalAlign=middle;whiteSpace=wrap;rounded=0;" parent="PbpC3O1FXFTj0-YnTnsV-1" vertex="1">
                    <mxGeometry x="500" y="70" width="80" height="20" as="geometry"/>
                </mxCell>
                <mxCell id="ov4HTieGYT_I95JNGuCq-12" value="&lt;font style=&quot;font-size: 18px&quot;&gt;FIN-WAIT-1&lt;br&gt;终止等待1&lt;br&gt;&lt;/font&gt;" style="text;html=1;strokeColor=none;fillColor=none;align=center;verticalAlign=middle;whiteSpace=wrap;rounded=0;" parent="PbpC3O1FXFTj0-YnTnsV-1" vertex="1">
                    <mxGeometry x="40" y="230" width="100" height="20" as="geometry"/>
                </mxCell>
                <mxCell id="ov4HTieGYT_I95JNGuCq-13" value="" style="endArrow=classic;html=1;entryX=0;entryY=0;entryDx=0;entryDy=0;exitX=1.005;exitY=0.166;exitDx=0;exitDy=0;exitPerimeter=0;" parent="PbpC3O1FXFTj0-YnTnsV-1" source="ov4HTieGYT_I95JNGuCq-0" target="ov4HTieGYT_I95JNGuCq-6" edge="1">
                    <mxGeometry relative="1" as="geometry">
                        <mxPoint x="202" y="162" as="sourcePoint"/>
                        <mxPoint x="510" y="310" as="targetPoint"/>
                    </mxGeometry>
                </mxCell>
                <mxCell id="ov4HTieGYT_I95JNGuCq-14" value="&lt;font style=&quot;font-size: 18px&quot;&gt;FIN=1,seq=u&lt;/font&gt;" style="edgeLabel;resizable=0;html=1;align=center;verticalAlign=middle;" parent="ov4HTieGYT_I95JNGuCq-13" connectable="0" vertex="1">
                    <mxGeometry relative="1" as="geometry"/>
                </mxCell>
                <mxCell id="ov4HTieGYT_I95JNGuCq-16" value="" style="endArrow=classic;html=1;exitX=0;exitY=0.25;exitDx=0;exitDy=0;entryX=1;entryY=0;entryDx=0;entryDy=0;" parent="PbpC3O1FXFTj0-YnTnsV-1" source="ov4HTieGYT_I95JNGuCq-6" target="ov4HTieGYT_I95JNGuCq-2" edge="1">
                    <mxGeometry relative="1" as="geometry">
                        <mxPoint x="480" y="300" as="sourcePoint"/>
                        <mxPoint x="640" y="420" as="targetPoint"/>
                    </mxGeometry>
                </mxCell>
                <mxCell id="ov4HTieGYT_I95JNGuCq-17" value="&lt;span style=&quot;font-size: 18px&quot;&gt;ACK=1,seq=v,ack=u+1&lt;/span&gt;" style="edgeLabel;resizable=0;html=1;align=center;verticalAlign=middle;" parent="ov4HTieGYT_I95JNGuCq-16" connectable="0" vertex="1">
                    <mxGeometry relative="1" as="geometry">
                        <mxPoint y="-5" as="offset"/>
                    </mxGeometry>
                </mxCell>
                <mxCell id="ov4HTieGYT_I95JNGuCq-18" value="" style="endArrow=classic;html=1;exitX=1;exitY=0.25;exitDx=0;exitDy=0;entryX=0;entryY=0;entryDx=0;entryDy=0;" parent="PbpC3O1FXFTj0-YnTnsV-1" source="ov4HTieGYT_I95JNGuCq-3" target="ov4HTieGYT_I95JNGuCq-9" edge="1">
                    <mxGeometry relative="1" as="geometry">
                        <mxPoint x="320" y="500" as="sourcePoint"/>
                        <mxPoint x="480" y="620" as="targetPoint"/>
                    </mxGeometry>
                </mxCell>
                <mxCell id="ov4HTieGYT_I95JNGuCq-19" value="&lt;font style=&quot;font-size: 18px&quot;&gt;ACK=1,seq=u+1,ack=w+1&lt;/font&gt;" style="edgeLabel;resizable=0;html=1;align=center;verticalAlign=middle;" parent="ov4HTieGYT_I95JNGuCq-18" connectable="0" vertex="1">
                    <mxGeometry relative="1" as="geometry"/>
                </mxCell>
                <mxCell id="ov4HTieGYT_I95JNGuCq-24" value="" style="endArrow=classic;html=1;exitX=0;exitY=0;exitDx=0;exitDy=0;entryX=1;entryY=1;entryDx=0;entryDy=0;" parent="PbpC3O1FXFTj0-YnTnsV-1" source="ov4HTieGYT_I95JNGuCq-7" target="ov4HTieGYT_I95JNGuCq-2" edge="1">
                    <mxGeometry relative="1" as="geometry">
                        <mxPoint x="480" y="360" as="sourcePoint"/>
                        <mxPoint x="320" y="450" as="targetPoint"/>
                    </mxGeometry>
                </mxCell>
                <mxCell id="ov4HTieGYT_I95JNGuCq-25" value="&lt;font style=&quot;font-size: 18px&quot;&gt;FIN=1,ACK=1,seq=w,ack=u+1&lt;/font&gt;" style="edgeLabel;resizable=0;html=1;align=center;verticalAlign=middle;" parent="ov4HTieGYT_I95JNGuCq-24" connectable="0" vertex="1">
                    <mxGeometry relative="1" as="geometry">
                        <mxPoint as="offset"/>
                    </mxGeometry>
                </mxCell>
                <mxCell id="ov4HTieGYT_I95JNGuCq-29" value="&lt;font style=&quot;font-size: 18px&quot;&gt;CLOSED&lt;/font&gt;" style="text;html=1;strokeColor=none;fillColor=none;align=center;verticalAlign=middle;whiteSpace=wrap;rounded=0;" parent="PbpC3O1FXFTj0-YnTnsV-1" vertex="1">
                    <mxGeometry x="580" y="650" width="80" height="20" as="geometry"/>
                </mxCell>
                <mxCell id="ov4HTieGYT_I95JNGuCq-30" value="&lt;font style=&quot;font-size: 18px&quot;&gt;CLOSED&lt;/font&gt;" style="text;html=1;strokeColor=none;fillColor=none;align=center;verticalAlign=middle;whiteSpace=wrap;rounded=0;" parent="PbpC3O1FXFTj0-YnTnsV-1" vertex="1">
                    <mxGeometry x="60" y="650" width="80" height="20" as="geometry"/>
                </mxCell>
                <mxCell id="ov4HTieGYT_I95JNGuCq-31" value="&lt;font style=&quot;font-size: 18px&quot;&gt;FIN-WAIT-2&lt;br&gt;终止等待2&lt;br&gt;&lt;/font&gt;" style="text;html=1;strokeColor=none;fillColor=none;align=center;verticalAlign=middle;whiteSpace=wrap;rounded=0;" parent="PbpC3O1FXFTj0-YnTnsV-1" vertex="1">
                    <mxGeometry x="40" y="410" width="100" height="20" as="geometry"/>
                </mxCell>
                <mxCell id="ov4HTieGYT_I95JNGuCq-32" value="&lt;font style=&quot;font-size: 18px&quot;&gt;Time-WAIT&lt;br&gt;时间等待&lt;br&gt;&lt;/font&gt;" style="text;html=1;strokeColor=none;fillColor=none;align=center;verticalAlign=middle;whiteSpace=wrap;rounded=0;" parent="PbpC3O1FXFTj0-YnTnsV-1" vertex="1">
                    <mxGeometry x="40" y="530" width="100" height="20" as="geometry"/>
                </mxCell>
                <mxCell id="ov4HTieGYT_I95JNGuCq-33" value="&lt;font style=&quot;font-size: 18px&quot;&gt;CLOSE-WAIT&lt;br&gt;关闭等待&lt;br&gt;&lt;/font&gt;" style="text;html=1;strokeColor=none;fillColor=none;align=center;verticalAlign=middle;whiteSpace=wrap;rounded=0;" parent="PbpC3O1FXFTj0-YnTnsV-1" vertex="1">
                    <mxGeometry x="580" y="290" width="120" height="20" as="geometry"/>
                </mxCell>
                <mxCell id="ov4HTieGYT_I95JNGuCq-36" value="&lt;font style=&quot;font-size: 18px&quot;&gt;LAST_ACK&lt;br&gt;关闭等待&lt;br&gt;&lt;/font&gt;" style="text;html=1;strokeColor=none;fillColor=none;align=center;verticalAlign=middle;whiteSpace=wrap;rounded=0;" parent="PbpC3O1FXFTj0-YnTnsV-1" vertex="1">
                    <mxGeometry x="570" y="530" width="120" height="20" as="geometry"/>
                </mxCell>
            </root>
        </mxGraphModel>
    </diagram>
</mxfile>